<svg id="plus-square_1_" data-name="plus-square (1)" xmlns="http://www.w3.org/2000/svg" width="25" height="25" viewBox="0 0 25 25">
  <path id="Path_21" data-name="Path 21" d="M21.875,1.563a1.562,1.562,0,0,1,1.563,1.563v18.75a1.562,1.562,0,0,1-1.562,1.563H3.125a1.562,1.562,0,0,1-1.562-1.562V3.125A1.563,1.563,0,0,1,3.125,1.563ZM3.125,0A3.125,3.125,0,0,0,0,3.125v18.75A3.125,3.125,0,0,0,3.125,25h18.75A3.125,3.125,0,0,0,25,21.875V3.125A3.125,3.125,0,0,0,21.875,0Z" transform="translate(0)"/>
  <path id="Path_22" data-name="Path 22" d="M10.283,4a.785.785,0,0,1,.785.785V9.5h4.712a.785.785,0,1,1,0,1.571H11.068v4.712a.785.785,0,1,1-1.571,0V11.068H4.785a.785.785,0,0,1,0-1.571H9.5V4.785A.785.785,0,0,1,10.283,4Z" transform="translate(2.217 2.217)"/>
</svg>
