<svg xmlns="http://www.w3.org/2000/svg" width="25" height="25" viewBox="0 0 25 25">
  <path id="heart_1_" data-name="heart (1)" d="M12.5,4.58,11.38,3.352C8.75.468,3.928,1.463,2.188,5.088c-.817,1.7-1,4.167.491,7.308,1.438,3.025,4.428,6.648,9.822,10.595,5.394-3.947,8.383-7.57,9.822-10.595,1.492-3.143,1.309-5.6.491-7.308C21.072,1.463,16.25.467,13.621,3.35ZM12.5,25C-11.458,8.113,5.124-5.067,12.225,1.905c.094.092.186.187.275.285q.132-.147.275-.283C19.876-5.07,36.459,8.112,12.5,25Z" transform="translate(0 0)" fill="#ee1212"/>
</svg>
