<svg xmlns="http://www.w3.org/2000/svg" width="25" height="25" viewBox="0 0 25 25">
  <g id="pencil-square_1_" data-name="pencil-square (1)" transform="translate(-1 -0.5)">
    <path id="Path_15" data-name="Path 15" d="M21.789,2.727a.773.773,0,0,1,0,1.092L20.176,5.434,17.083,2.341,18.7.726a.773.773,0,0,1,1.093,0l2,2Zm-2.707,3.8L15.989,3.433,5.452,13.971a.773.773,0,0,0-.187.3L4.02,18.008a.387.387,0,0,0,.489.489l3.734-1.245a.773.773,0,0,0,.3-.186L19.082,6.527Z" transform="translate(3.985 0)" fill="#343a40"/>
    <path id="Path_16" data-name="Path 16" d="M1,22.63a2.584,2.584,0,0,0,2.571,2.6H22.427A2.584,2.584,0,0,0,25,22.63V12.248a.857.857,0,1,0-1.714,0V22.63a.861.861,0,0,1-.857.865H3.571a.861.861,0,0,1-.857-.865V3.6a.861.861,0,0,1,.857-.865H14.713a.865.865,0,0,0,0-1.73H3.571A2.584,2.584,0,0,0,1,3.6Z" transform="translate(0 0.274)" fill="#343a40" fill-rule="evenodd"/>
  </g>
</svg>
