<svg id="plus-square" xmlns="http://www.w3.org/2000/svg" width="160" height="160" viewBox="0 0 160 160">
  <path id="Path_12" data-name="Path 12" d="M140,10a10,10,0,0,1,10,10V140a10,10,0,0,1-10,10H20a10,10,0,0,1-10-10V20A10,10,0,0,1,20,10ZM20,0A20,20,0,0,0,0,20V140a20,20,0,0,0,20,20H140a20,20,0,0,0,20-20V20A20,20,0,0,0,140,0Z" fill="#e0e0e0"/>
  <path id="Path_13" data-name="Path 13" d="M105.848,63.25a5.325,5.325,0,0,1,5.325,5.325v31.949h31.949a5.325,5.325,0,0,1,0,10.65H111.173v31.949a5.325,5.325,0,0,1-10.65,0V111.173H68.575a5.325,5.325,0,0,1,0-10.65h31.949V68.575A5.325,5.325,0,0,1,105.848,63.25Z" transform="translate(-25.848 -25.848)" fill="#e0e0e0"/>
</svg>
